<svg width="145" height="30" viewBox="0 0 145 30" fill="none" xmlns="http://www.w3.org/2000/svg">
<path d="M43.3692 22.1064C46.026 22.3989 46.2232 25.6666 47.5911 27.373C48.7109 28.7698 50.3396 29.6646 52.1191 29.8606C53.8985 30.0565 55.6829 29.5375 57.0797 28.4178C58.4765 27.2981 59.3713 25.6693 59.5673 23.8899C59.7632 22.1104 59.2442 20.326 58.1245 18.9292C57.9005 18.6498 57.7967 18.2929 57.8359 17.937C57.8751 17.5811 58.0541 17.2554 58.3334 17.0315C59.7302 15.9117 60.625 14.283 60.8209 12.5035C61.0169 10.7241 60.4979 8.93966 59.3782 7.54286C58.2584 6.14605 56.6297 5.25126 54.8502 5.05533C53.0708 4.85941 51.2864 5.37839 49.8896 6.49811C48.1832 7.86602 47.2797 11.0126 44.6229 10.72L18.0548 7.79476C15.398 7.50224 15.2008 4.23449 13.8329 2.52809C12.7132 1.13129 11.0844 0.236498 9.30496 0.0405703C7.5255 -0.155357 5.74109 0.363626 4.34429 1.48335C2.94748 2.60308 2.05269 4.23182 1.85676 6.01128C1.66083 7.79074 2.17982 9.57514 3.29955 10.9719C3.7724 11.5618 3.68046 12.3968 3.0906 12.8697C1.69379 13.9894 0.798997 15.6181 0.60307 17.3976C0.407143 19.1771 0.926128 20.9615 2.04585 22.3583C3.16558 23.7551 4.79432 24.6499 6.57378 24.8458C8.35324 25.0417 10.1376 24.5227 11.5345 23.403C13.2409 22.0351 14.1443 18.8886 16.8011 19.1811L43.3692 22.1064Z" fill="#DED3A7"/>
<path d="M144.936 17.9709C144.824 18.9629 144.392 19.9229 143.64 20.8509C142.904 21.7789 141.664 22.2429 139.92 22.2429C138.352 22.2429 137.056 21.7869 136.032 20.8749C135.024 19.9629 134.52 18.5949 134.52 16.7709C134.52 14.8509 135.072 13.4029 136.176 12.4269C137.28 11.4509 138.616 10.9629 140.184 10.9629C140.776 10.9629 141.408 11.0429 142.08 11.2029C142.768 11.3469 143.44 11.5949 144.096 11.9469L144.576 15.2349L142.104 15.4989L141.744 13.7229C141.12 13.5149 140.576 13.4109 140.112 13.4109C139.456 13.4109 138.896 13.6669 138.432 14.1789C137.968 14.6749 137.736 15.4909 137.736 16.6269C137.736 18.7389 138.56 19.7949 140.208 19.7949C141.424 19.7949 142.136 19.0269 142.344 17.4909L144.936 17.9709Z" fill="#31493C"/>
<path d="M133.526 18.5949C133.446 19.5549 132.974 20.4029 132.11 21.1389C131.246 21.8749 130.038 22.2429 128.486 22.2429C126.87 22.2429 125.534 21.7869 124.478 20.8749C123.438 19.9629 122.918 18.6029 122.918 16.7949C122.918 15.1309 123.39 13.7469 124.334 12.6429C125.294 11.5229 126.63 10.9629 128.342 10.9629C129.846 10.9629 131.062 11.3949 131.99 12.2589C132.934 13.1229 133.414 14.2589 133.43 15.6669C133.43 16.1949 133.374 16.7149 133.262 17.2269H126.158C126.334 18.9389 127.182 19.7949 128.702 19.7949C129.534 19.7949 130.094 19.5949 130.382 19.1949C130.686 18.7949 130.87 18.4349 130.934 18.1149L133.526 18.5949ZM130.238 15.4269C130.302 14.8829 130.182 14.3709 129.878 13.8909C129.59 13.4109 129.078 13.1709 128.342 13.1709C127.702 13.1709 127.206 13.3789 126.854 13.7949C126.502 14.2109 126.278 14.7549 126.182 15.4269H130.238Z" fill="#31493C"/>
<path d="M122.13 22.0029H116.154V19.6749H117.594V15.9069C117.594 14.9789 117.434 14.3149 117.114 13.9149C116.81 13.5149 116.354 13.3149 115.746 13.3149C115.01 13.3149 114.442 13.5469 114.042 14.0109C113.642 14.4589 113.434 15.0509 113.418 15.7869V19.6749H114.858V22.0029H108.882V19.6749H110.322V13.5309H108.762V11.1789H113.418V12.8349C114.138 11.5869 115.298 10.9629 116.898 10.9629C117.922 10.9629 118.81 11.2669 119.562 11.8749C120.314 12.4829 120.69 13.4269 120.69 14.7069V19.6749H122.13V22.0029Z" fill="#31493C"/>
<path d="M103.104 9.25702V6.04102H106.2V9.25702H103.104ZM107.76 22.001H101.784V19.673H103.224V13.529H101.664V11.177H106.32V19.673H107.76V22.001Z" fill="#31493C"/>
<path d="M101.198 18.6426C101.038 19.8906 100.606 20.8026 99.9017 21.3786C99.1977 21.9546 98.2857 22.2426 97.1657 22.2426C95.9657 22.2426 94.9897 21.9466 94.2377 21.3546C93.5017 20.7466 93.1337 19.8826 93.1337 18.7626V13.3866H91.5977V11.1786H93.1337V7.89062H96.2297V11.1786H100.118V13.3866H96.2297V18.2346C96.2297 19.1786 96.6617 19.6506 97.5257 19.6506C97.7177 19.6506 97.9737 19.5706 98.2937 19.4106C98.6297 19.2346 98.8457 18.7466 98.9417 17.9466L101.198 18.6426Z" fill="#31493C"/>
<path d="M80.9449 11.9469C81.8889 11.5629 82.6729 11.3069 83.2969 11.1789C83.9369 11.0349 84.6969 10.9629 85.5769 10.9629C86.7449 10.9629 87.7529 11.2669 88.6009 11.8749C89.4489 12.4829 89.8729 13.4029 89.8729 14.6349V19.3389C89.8729 19.8989 90.1209 20.1789 90.6169 20.1789C90.7609 20.1789 90.9129 20.1549 91.0729 20.1069L91.0969 21.7389C90.4729 22.0749 89.8249 22.2429 89.1529 22.2429C87.7289 22.2429 86.9369 21.5309 86.7769 20.1069V20.0829C86.4729 20.6269 86.0329 21.1229 85.4569 21.5709C84.8969 22.0189 84.1769 22.2429 83.2969 22.2429C82.5129 22.2429 81.7609 22.0109 81.0409 21.5469C80.3209 21.0829 79.9609 20.2829 79.9609 19.1469C79.9609 17.8189 80.4889 16.9389 81.5449 16.5069C82.6169 16.0749 83.7689 15.8589 85.0009 15.8589C85.6889 15.8589 86.2809 15.8909 86.7769 15.9549V15.5949C86.7769 15.0349 86.6969 14.4909 86.5369 13.9629C86.3929 13.4349 85.8809 13.1709 85.0009 13.1709C84.6809 13.1709 84.3849 13.1949 84.1129 13.2429C83.8569 13.2749 83.6009 13.3549 83.3449 13.4829L82.9369 15.0189L80.4649 14.7549L80.9449 11.9469ZM86.7769 17.5869V17.4429C86.5209 17.4109 86.2569 17.3789 85.9849 17.3469C85.7289 17.3149 85.4729 17.2989 85.2169 17.2989C84.6729 17.2989 84.1929 17.4029 83.7769 17.6109C83.3609 17.8029 83.1529 18.1949 83.1529 18.7869C83.1529 19.1389 83.2489 19.4349 83.4409 19.6749C83.6329 19.9149 83.9609 20.0349 84.4249 20.0349C84.9689 20.0349 85.4729 19.8429 85.9369 19.4589C86.4169 19.0589 86.6969 18.4349 86.7769 17.5869Z" fill="#31493C"/>
<path d="M79.0244 22.0029H74.4884V15.9069C74.4884 14.9789 74.3284 14.3149 74.0084 13.9149C73.7044 13.5149 73.2484 13.3149 72.6404 13.3149C71.9044 13.3149 71.3684 13.5549 71.0324 14.0349C70.7124 14.5149 70.5524 15.1309 70.5524 15.8829V19.6749H71.9924V22.0029H67.4564V15.9069C67.4564 14.9789 67.2964 14.3149 66.9764 13.9149C66.6724 13.5149 66.2164 13.3149 65.6084 13.3149C64.8564 13.3149 64.3204 13.5549 64.0004 14.0349C63.6804 14.5149 63.5204 15.1309 63.5204 15.8829V19.6749H65.5844V22.0029H58.9844V19.6749H60.4244V13.5309H59.0084V11.1789H63.5204V12.8109C64.2084 11.5789 65.3044 10.9629 66.8084 10.9629C67.5924 10.9629 68.3124 11.1549 68.9684 11.5389C69.6244 11.9229 70.0804 12.5069 70.3364 13.2909C70.9764 11.7389 72.1524 10.9629 73.8644 10.9629C74.8404 10.9629 75.7044 11.2669 76.4564 11.8749C77.2084 12.4829 77.5844 13.4269 77.5844 14.7069V19.6749H79.0244V22.0029Z" fill="#31493C"/>
<path d="M57.7133 18.6909C57.7133 19.8909 57.2333 20.7869 56.2733 21.3789C55.3293 21.9549 54.0973 22.2429 52.5773 22.2429C51.7933 22.2429 51.0013 22.1629 50.2013 22.0029C49.4173 21.8269 48.6653 21.5549 47.9453 21.1869L48.3773 18.1629L50.7773 18.4269V19.7709C51.0653 19.8669 51.3693 19.9309 51.6893 19.9629C52.0093 19.9789 52.2493 19.9869 52.4093 19.9869C53.0013 19.9869 53.5133 19.8909 53.9453 19.6989C54.3773 19.5069 54.5933 19.2189 54.5933 18.8349C54.5933 18.3709 54.2653 18.0669 53.6093 17.9229C52.9533 17.7789 52.1933 17.6349 51.3293 17.4909C50.4653 17.3469 49.7053 17.0509 49.0493 16.6029C48.3933 16.1549 48.0653 15.3949 48.0653 14.3229C48.0653 12.9949 48.5773 12.1069 49.6013 11.6589C50.6413 11.1949 51.7133 10.9629 52.8173 10.9629C54.2573 10.9629 55.6093 11.2909 56.8733 11.9469L57.1373 14.7069L54.7373 14.9709L54.5453 13.4589C54.0173 13.2829 53.4493 13.1949 52.8413 13.1949C52.4413 13.1949 52.0973 13.2829 51.8093 13.4589C51.5373 13.6189 51.4013 13.8749 51.4013 14.2269C51.4013 14.6909 51.7133 15.0029 52.3373 15.1629C52.9773 15.3069 53.7133 15.4509 54.5453 15.5949C55.3933 15.7389 56.1293 16.0349 56.7533 16.4829C57.3933 16.9149 57.7133 17.6509 57.7133 18.6909Z" fill="#31493C"/>
<path d="M46.7834 16.6015C46.7834 18.3135 46.2234 19.6815 45.1034 20.7055C43.9834 21.7295 42.5594 22.2415 40.8314 22.2415C39.1674 22.2415 37.8074 21.7615 36.7514 20.8015C35.7114 19.8255 35.1914 18.4655 35.1914 16.7215C35.1914 15.1375 35.6714 13.7775 36.6314 12.6415C37.5914 11.5055 39.0474 10.9375 40.9994 10.9375C42.9514 10.9375 44.3994 11.5055 45.3434 12.6415C46.3034 13.7615 46.7834 15.0815 46.7834 16.6015ZM43.5914 16.5055C43.5914 15.4015 43.3354 14.5935 42.8234 14.0815C42.3114 13.5695 41.6874 13.3135 40.9514 13.3135C40.1514 13.3135 39.5194 13.6015 39.0554 14.1775C38.6074 14.7375 38.3834 15.5295 38.3834 16.5535C38.3834 17.4815 38.5914 18.2655 39.0074 18.9055C39.4394 19.5455 40.0794 19.8655 40.9274 19.8655C41.7274 19.8655 42.3674 19.5695 42.8474 18.9775C43.3434 18.3695 43.5914 17.5455 43.5914 16.5055Z" fill="#31493C"/>
<path d="M34.5001 22.0022H28.9561V19.6742H29.9641L28.0921 17.5382H26.4841V19.6742H27.4681V22.0022H21.9481V19.6742H23.3881V7.84223H21.8281V5.49023H26.4841V15.3542H28.2841L29.8681 13.5302H28.5721V11.1782H33.9961V13.5302H32.8201L30.4921 16.1702L33.5641 19.6742H34.5001V22.0022Z" fill="#31493C"/>
<path d="M14.7936 15.5469H20.2896L20.0976 17.3469H14.6016L14.7936 15.5469Z" fill="#31493C"/>
<path d="M8.209 20.5866C8.961 20.5866 9.537 20.3866 9.937 19.9866C10.353 19.5706 10.665 19.0906 10.873 18.5466L12.505 18.9066C12.297 19.8026 11.793 20.5866 10.993 21.2586C10.209 21.9146 9.177 22.2426 7.897 22.2426C6.601 22.2426 5.561 21.8506 4.777 21.0666C4.009 20.2826 3.625 19.1066 3.625 17.5386C3.625 15.7466 4.121 14.2186 5.113 12.9546C6.105 11.6906 7.449 11.0586 9.145 11.0586C10.169 11.0586 11.025 11.3066 11.713 11.8026C12.401 12.2986 12.745 12.9706 12.745 13.8186C12.745 14.6026 12.449 15.2746 11.857 15.8346C11.281 16.3946 10.297 16.8266 8.905 17.1306C8.457 17.2266 7.969 17.3226 7.441 17.4186C6.913 17.4986 6.369 17.5786 5.809 17.6586C5.825 18.5706 6.017 19.2906 6.385 19.8186C6.753 20.3306 7.361 20.5866 8.209 20.5866ZM7.969 15.9546C9.105 15.6986 9.825 15.3946 10.129 15.0426C10.433 14.6906 10.585 14.3306 10.585 13.9626C10.585 13.4666 10.425 13.1226 10.105 12.9306C9.801 12.7226 9.409 12.6186 8.929 12.6186C7.937 12.6186 7.201 13.0026 6.721 13.7706C6.257 14.5226 5.969 15.3626 5.857 16.2906C6.305 16.2266 6.697 16.1706 7.033 16.1226C7.385 16.0586 7.697 16.0026 7.969 15.9546Z" fill="#31493C"/>
</svg>
