<svg width="61" height="30" viewBox="0 0 61 30" fill="none" xmlns="http://www.w3.org/2000/svg">
<path d="M42.8067 22.1064C45.4635 22.3989 45.6607 25.6666 47.0286 27.373C48.1484 28.7698 49.7771 29.6646 51.5566 29.8606C53.336 30.0565 55.1204 29.5375 56.5172 28.4178C57.914 27.2981 58.8088 25.6693 59.0048 23.8899C59.2007 22.1104 58.6817 20.326 57.562 18.9292C57.338 18.6498 57.2342 18.2929 57.2734 17.937C57.3126 17.5811 57.4916 17.2554 57.7709 17.0315C59.1677 15.9117 60.0625 14.283 60.2584 12.5035C60.4544 10.7241 59.9354 8.93966 58.8157 7.54286C57.6959 6.14605 56.0672 5.25126 54.2877 5.05533C52.5083 4.85941 50.7239 5.37839 49.3271 6.49811C47.6207 7.86602 46.7172 11.0126 44.0604 10.72L17.4923 7.79476C14.8355 7.50224 14.6383 4.23449 13.2704 2.52809C12.1507 1.13129 10.5219 0.236498 8.74246 0.0405703C6.963 -0.155357 5.17859 0.363626 3.78179 1.48335C2.38498 2.60308 1.49019 4.23182 1.29426 6.01128C1.09833 7.79074 1.61732 9.57514 2.73705 10.9719C3.2099 11.5618 3.11796 12.3968 2.5281 12.8697C1.13129 13.9894 0.236497 15.6181 0.0405702 17.3976C-0.155357 19.1771 0.363628 20.9615 1.48335 22.3583C2.60308 23.7551 4.23182 24.6499 6.01128 24.8458C7.79074 25.0417 9.57514 24.5227 10.972 23.403C12.6784 22.0351 13.5818 18.8886 16.2386 19.1811L42.8067 22.1064Z" fill="#DED3A7"/>
</svg>
